<?xml version="1.0" encoding="UTF-8" standalone="no"?>
<!-- Created with Inkscape (http://www.inkscape.org/) -->

<svg
   width="1000.0001"
   height="1000.0001"
   viewBox="0 0 264.58333 264.58333"
   version="1.1"
   id="svg5"
   xml:space="preserve"
   xmlns="http://www.w3.org/2000/svg"
   xmlns:svg="http://www.w3.org/2000/svg"><defs
     id="defs2" /><g
     id="layer1"><g
       id="Layer1002"
       transform="matrix(0.35277777,0,0,0.35277777,-117.70827,-103.6085)"
       style="fill:#334eac;fill-opacity:1"><path
         d="m 486.5771,674.7073 c 1.7578,45.2573 39.3234,81.7333 84.9899,81.7333 h 0.004 c 46.7843,0 85.0648,-38.2784 85.0648,-85.0648 v -1.2253 -0.1984 -0.0729 -0.0729 -0.073 -0.0749 -0.0729 -0.0729 -75.0259 c 0,-40.4373 30.5179,-74.0861 69.6571,-79.0621 v 24.7926 l -14.3567,17.4715 c -24.8797,30.2728 -38.7726,67.806 -39.3842,107.0059 -0.0142,0.9073 -0.0325,1.8126 -0.0325,2.7199 V 787.0294 C 645.3737,810.5056 610.0581,824.757 571.571,824.757 h -0.002 c -83.5338,0 -152.1519,-67.0911 -154.6449,-150.0497 -0.0466,-1.5534 -0.077,-3.1087 -0.077,-4.6722 v -75.0259 c 0,-40.4373 30.5179,-74.0861 69.6571,-79.0621 v 155.4287 c 0,1.1159 0.0303,2.2257 0.0729,3.3315 z"
         style="fill:#334eac;fill-opacity:1;fill-rule:evenodd"
         id="path174" /><path
         d="m 486.5042,671.5317 c 0,0.4881 0.0121,0.9762 0.0202,1.4622 -0.0121,-0.488 -0.0202,-0.9741 -0.0202,-1.4622 z"
         style="fill:#334eac;fill-opacity:1;fill-rule:evenodd"
         id="path176" /><path
         d="m 930.7944,664.085 c 0.0162,0.5975 0.0243,1.1909 0.0243,1.7923 0,-0.5994 -0.008,-1.1908 -0.0243,-1.7923 z"
         style="fill:#334eac;fill-opacity:1;fill-rule:evenodd"
         id="path178" /><path
         d="m 760.687,668.9557 v -2.9447 c 0,-46.7864 38.2785,-85.0648 85.0628,-85.0648 h 0.004 c 46.0735,0 83.8984,37.1261 85.0365,82.9404 0.0183,0.7068 0.0284,1.4136 0.0284,2.1244 v 156.0646 h 3.7608 c 36.719,-6.4786 64.9788,-38.319 65.8719,-76.6238 h 0.024 v -78.1001 c 0,-85.0972 -69.6246,-154.7219 -154.7219,-154.7219 h -0.002 c -38.5154,0 -73.8512,14.2676 -101.0052,37.7722 v 119.6939 c 0,1.5472 -0.0223,3.0945 -0.0628,4.6417 -1.0288,38.5276 -14.8954,75.3317 -39.3539,105.0901 L 691.03,797.2283 v 24.8473 h 8.6861 c 34.8741,-8.4796 60.9709,-40.0647 60.9709,-77.4561 v -75.0259 -0.0729 -0.0729 -0.0749 -0.0729 -0.073 -0.0729 z"
         style="fill:#334eac;fill-opacity:1;fill-rule:evenodd"
         id="path180" /><path
         d="m 726.2355,569.4417 c -21.4804,26.1378 -34.6104,59.3843 -35.1745,95.5435 -0.0122,0.8076 -0.0304,1.6173 -0.0304,2.429 v 0.587 0.0526 0.0526 0.0527 0.0506 0.0526 0.0526 99.7598 c 21.1448,-25.7269 34.202,-58.3358 35.1483,-93.8311 0.0364,-1.3784 0.0566,-2.7609 0.0566,-4.1474 z"
         style="fill:#334eac;fill-opacity:1;fill-rule:evenodd"
         id="path182" /></g></g></svg>
